<?xml version="1.0" standalone="no"?>
<!DOCTYPE svg PUBLIC "-//W3C//DTD SVG 20010904//EN"
 "http://www.w3.org/TR/2001/REC-SVG-20010904/DTD/svg10.dtd">
<svg version="1.0" xmlns="http://www.w3.org/2000/svg"
 width="885.000000pt" height="882.000000pt" viewBox="0 0 885.000000 882.000000"
 preserveAspectRatio="xMidYMid meet">
<metadata>
Created by potrace 1.16, written by Peter Selinger 2001-2019
</metadata>
<g transform="translate(0.000000,882.000000) scale(0.100000,-0.100000)"
fill="#000000" stroke="none">
<path d="M4305 8294 c-576 -35 -1084 -168 -1564 -409 -397 -198 -687 -405
-1010 -720 -681 -665 -1078 -1459 -1188 -2380 -24 -201 -24 -668 0 -865 81
-655 297 -1237 646 -1740 265 -382 659 -771 1056 -1042 219 -150 556 -329 795
-423 324 -127 705 -219 1070 -257 152 -15 547 -15 685 0 409 47 811 150 1155
297 229 98 586 302 765 438 450 341 765 666 1032 1067 499 748 721 1756 583
2652 -74 482 -240 957 -480 1374 -272 473 -717 961 -1170 1284 -550 393 -1165
629 -1840 705 -138 15 -428 26 -535 19z m460 -179 c587 -37 1309 -309 1811
-682 132 -99 254 -200 254 -212 0 -13 -241 -246 -251 -243 -6 1 -7 -3 -4 -9 4
-6 -45 -64 -116 -137 -68 -70 -171 -175 -228 -234 -57 -59 -108 -105 -114
-101 -6 4 -7 1 -2 -6 9 -15 -263 -293 -278 -284 -6 3 -7 2 -4 -4 6 -9 -28 -47
-231 -258 -254 -264 -285 -294 -292 -290 -5 3 -12 0 -16 -6 -4 -8 -3 -9 4 -5
26 16 9 -9 -42 -60 -29 -30 -59 -54 -66 -54 -6 0 -25 9 -41 20 -35 25 -96 53
-202 91 -188 68 -370 95 -586 86 -223 -9 -425 -59 -615 -152 -85 -42 -106 -47
-106 -24 0 6 5 7 12 3 7 -4 8 -3 4 5 -4 6 -12 8 -18 5 -12 -8 -79 56 -72 68 3
5 0 7 -8 6 -7 -2 -12 3 -10 10 1 8 -2 11 -7 8 -5 -3 -25 13 -46 37 -20 23
-103 110 -183 192 -81 83 -205 211 -276 285 -252 263 -566 588 -774 802 -66
68 -101 111 -96 119 4 7 3 9 -4 5 -12 -7 -127 107 -127 127 0 6 44 48 97 93
406 339 954 602 1518 728 216 49 340 66 523 73 l157 6 0 -132 c0 -91 3 -130
11 -126 5 4 19 -1 30 -11 33 -30 121 -12 151 31 4 5 8 63 8 128 l0 118 73 -5
c39 -3 113 -8 162 -11z m-2815 -1059 l51 -48 -23 -26 c-13 -14 -48 -50 -78
-81 -175 -178 -305 -332 -292 -346 4 -5 1 -5 -6 -1 -7 4 -15 1 -18 -9 -4 -8
-18 -28 -33 -44 -14 -15 -33 -40 -41 -55 -14 -27 -13 -29 26 -64 64 -58 142
-122 148 -122 3 0 6 7 6 15 0 9 -6 12 -17 8 -15 -6 -16 -5 -3 9 13 14 16 14
23 1 5 -8 7 -20 4 -27 -6 -16 19 -50 31 -42 16 9 42 -4 42 -22 0 -13 -2 -13
-13 3 -19 25 -34 12 -42 -35 -8 -45 -27 -60 -79 -60 -31 0 -84 31 -108 65 -8
10 -12 0 -9 -18 1 -5 -3 -6 -8 -2 -6 3 -8 11 -5 18 2 7 -20 34 -49 59 -49 43
-55 45 -68 30 -30 -36 -60 -92 -54 -102 4 -6 1 -9 -5 -8 -14 4 -141 -232 -135
-250 3 -7 1 -11 -4 -8 -12 8 -85 -160 -75 -175 4 -7 3 -10 -2 -6 -5 3 -22 -28
-36 -69 -18 -50 -23 -74 -15 -74 7 0 4 -5 -5 -11 -10 -5 -18 -13 -18 -17 0
-12 92 -45 124 -45 17 0 24 -3 16 -5 -8 -3 28 -20 79 -39 51 -18 97 -30 103
-27 6 4 8 2 4 -4 -3 -6 2 -13 12 -16 29 -10 50 -56 41 -94 -9 -43 -18 -51 -60
-58 -26 -4 -71 9 -192 55 -87 34 -164 61 -172 61 -15 0 -15 -1 -44 -110 -31
-118 -63 -285 -86 -445 -4 -27 -10 -103 -14 -168 -5 -100 -4 -117 9 -117 12
-1 11 -3 -2 -11 -10 -5 -18 -19 -18 -29 0 -18 -7 -20 -76 -20 l-75 0 6 108
c22 382 92 723 221 1079 179 494 469 943 879 1360 49 51 93 91 97 90 3 -1 29
-24 58 -51z m5161 -94 c643 -660 1021 -1523 1051 -2402 l3 -85 -128 -1 c-118
-1 -130 -2 -150 -23 -17 -17 -22 -33 -22 -77 0 -86 15 -94 174 -94 l126 0 -2
-62 c-30 -733 -254 -1408 -652 -1965 -108 -150 -237 -299 -386 -448 -180 -180
-459 -415 -492 -415 -6 0 -34 14 -62 31 -43 27 -49 34 -38 47 6 9 7 13 1 9 -6
-3 -11 0 -11 8 0 8 4 12 8 9 9 -5 10 -4 111 81 64 54 76 75 43 75 -31 0 -130
52 -211 111 -89 64 -154 136 -185 204 -24 52 -27 175 -4 175 8 0 15 -5 15 -11
0 -6 9 -22 20 -36 24 -31 25 -25 5 23 -8 20 -12 40 -10 45 3 5 27 -7 54 -26
111 -80 229 -112 371 -100 130 10 257 79 348 188 l32 39 0 -123 0 -124 53 59
c276 312 511 706 631 1057 40 118 43 154 17 251 -13 50 -14 65 -4 56 10 -8 13
-7 13 3 0 11 2 11 10 -1 5 -8 12 -11 17 -7 4 5 3 11 -3 15 -19 13 -23 40 -8
52 15 13 17 9 15 -25 -1 -14 5 -9 18 14 18 34 19 34 19 8 0 -15 -5 -24 -10
-21 -6 4 -7 -2 -3 -16 5 -17 4 -21 -6 -15 -9 6 -11 3 -6 -9 4 -10 3 -15 -3
-11 -16 10 -12 -5 7 -23 16 -16 16 -16 10 0 -3 10 -3 20 2 22 7 5 13 29 45
172 12 56 11 65 -6 100 -10 21 -18 45 -18 55 0 16 -58 138 -71 149 -9 7 -56
140 -64 178 -4 19 -13 32 -22 32 -11 0 -14 7 -10 23 6 25 -17 65 -28 48 -3 -6
-1 -11 4 -11 6 0 11 -7 11 -15 0 -20 -14 -19 -31 1 -11 14 -10 21 4 46 l17 30
-42 39 c-28 26 -49 37 -60 33 -12 -4 -18 0 -18 11 0 9 4 13 10 10 6 -4 7 6 4
27 -6 32 -6 32 9 13 9 -11 17 -25 17 -31 0 -6 7 -17 15 -24 13 -11 14 -10 8 6
-3 10 -15 31 -26 45 -17 23 -23 26 -53 19 -45 -10 -67 -7 -72 11 -3 11 -1 11
7 -1 9 -12 11 -11 11 7 0 12 -5 25 -11 29 -8 4 -8 9 0 17 16 16 13 27 -8 27
-19 0 -22 -14 -8 -37 4 -6 3 -14 -2 -18 -5 -3 -14 3 -20 12 -5 10 -13 15 -17
10 -4 -4 -1 -15 8 -24 8 -10 22 -31 32 -48 l18 -30 -26 27 c-14 15 -26 29 -26
32 0 6 -68 70 -109 103 -19 15 -21 22 -11 28 8 5 11 4 6 -3 -4 -6 6 -18 24
-27 16 -8 30 -20 30 -25 0 -6 9 -10 21 -10 11 0 17 4 14 10 -3 6 1 7 9 4 20
-8 20 4 2 25 -19 21 -4 53 16 33 16 -16 28 -15 28 1 0 16 -37 51 -62 60 -10 4
-18 13 -18 21 0 19 -84 90 -88 76 -3 -7 5 -18 17 -26 12 -8 21 -20 21 -26 0
-6 17 -29 37 -52 36 -39 37 -41 15 -44 -24 -4 -31 -22 -7 -22 16 0 20 -16 6
-24 -5 -3 -11 1 -15 9 -3 8 -13 15 -22 15 -14 0 -15 2 -3 17 11 13 11 17 2 20
-7 3 -13 15 -13 27 0 22 -2 23 -44 13 -35 -8 -44 -14 -41 -28 4 -18 2 -18 -21
-3 -13 9 -24 20 -24 25 0 5 -9 9 -19 9 -22 0 -36 16 -22 24 5 4 12 2 15 -3 6
-10 84 -7 94 3 3 3 0 6 -6 6 -7 0 -12 7 -12 16 0 13 5 12 30 -6 17 -12 30 -18
30 -14 0 13 -33 44 -47 44 -8 0 -11 5 -7 11 4 7 -4 20 -17 30 -18 14 -20 19
-8 19 9 0 19 -7 23 -15 3 -8 11 -15 17 -15 19 0 -7 25 -60 59 -32 21 -54 29
-71 25 -18 -4 -21 -3 -11 4 11 8 10 12 -5 20 -26 14 -77 4 -70 -14 4 -10 -2
-14 -19 -14 -18 0 -25 -5 -25 -19 0 -16 11 -20 81 -26 70 -6 83 -5 91 9 5 9
13 14 19 11 14 -9 11 -25 -5 -25 -15 0 -30 -27 -27 -47 1 -9 -7 -7 -27 4 -28
16 -30 16 -58 -6 -16 -13 -22 -22 -14 -20 18 3 70 -21 70 -33 0 -4 -4 -8 -10
-8 -5 0 -10 5 -10 10 0 6 -7 10 -15 10 -8 0 -15 5 -15 11 0 5 -4 8 -9 5 -11
-7 -72 14 -67 22 2 4 -6 8 -17 9 -12 0 -51 8 -87 17 -93 23 -270 31 -369 17
-92 -14 -236 -50 -296 -75 l-40 -16 25 21 c22 18 23 20 4 14 -14 -3 -21 -1
-21 9 0 8 6 12 14 9 10 -4 10 1 -2 23 -8 16 -15 38 -15 49 0 11 -11 37 -25 57
-14 20 -25 40 -25 44 0 4 -25 44 -56 90 -37 56 -60 81 -70 77 -10 -4 -12 0 -8
10 3 9 1 22 -5 29 -6 7 -21 24 -32 38 -60 72 -70 81 -88 83 -10 0 -17 6 -14
13 5 14 -65 77 -77 69 -6 -3 -8 0 -5 7 4 11 -20 32 -84 73 -8 6 -43 28 -77 50
-34 22 -76 48 -93 57 -17 9 -31 21 -31 26 0 6 60 69 133 142 72 73 122 129
110 126 -18 -6 -20 -4 -16 13 4 16 11 19 29 15 19 -5 23 -3 18 10 -3 9 -2 16
4 16 6 0 12 -5 14 -11 2 -6 12 -1 22 10 11 12 14 21 8 21 -7 0 -12 7 -12 15 0
9 6 12 16 8 10 -4 17 1 21 16 6 23 23 29 23 9 0 -17 59 50 71 81 6 15 6 28 -1
36 -8 9 -8 15 0 20 5 3 10 -1 10 -9 0 -9 5 -16 12 -16 9 0 9 -3 0 -12 -7 -7
-12 -16 -12 -22 0 -5 6 -1 14 9 7 10 11 27 8 37 -3 13 1 18 16 18 11 0 23 7
26 16 3 8 10 13 15 10 4 -3 6 11 4 31 -4 35 -3 35 25 30 35 -7 47 1 55 34 9
34 42 75 66 82 15 4 18 1 13 -12 -5 -13 -3 -14 9 -4 10 8 14 23 11 42 -3 24 0
30 26 39 23 8 32 7 35 -1 3 -9 8 -9 18 1 10 10 11 15 2 20 -8 5 -9 13 -3 22 7
10 10 11 10 3 0 -18 20 -16 27 3 3 9 0 20 -8 25 -11 6 -8 9 9 9 12 0 22 -6 22
-12 1 -7 16 4 35 25 18 22 31 45 28 53 -3 8 0 14 6 14 6 0 11 -5 11 -10 0 -6
11 -3 24 7 13 10 20 21 15 24 -15 9 0 35 27 48 14 6 23 14 21 19 -3 4 11 7 31
7 24 0 45 8 61 23 13 12 31 22 40 22 9 0 30 9 46 20 17 11 24 20 16 20 -24 0
17 38 55 50 28 10 37 9 50 -4 8 -9 21 -16 27 -16 7 0 6 4 -3 10 -8 5 -11 12
-7 17 4 4 16 2 26 -4 21 -13 131 -6 131 8 0 5 9 9 20 9 11 0 19 -5 18 -12 -4
-17 33 -22 44 -6 8 10 9 9 5 -4 -6 -18 19 -33 28 -18 3 6 17 -2 31 -18 l25
-27 -22 32 c-12 18 -26 30 -31 27 -4 -3 -8 1 -8 8 0 7 -26 43 -59 78 -54 60
-60 64 -77 50 -18 -14 -18 -14 -1 6 16 20 16 22 -2 38 -11 10 -25 15 -32 10
-8 -5 -10 -3 -4 5 9 16 -44 73 -59 64 -6 -3 -8 -3 -4 2 4 4 -6 23 -22 42 -17
18 -30 38 -30 44 0 12 80 99 90 99 4 0 72 -66 151 -148z m-2568 -1552 c170
-17 351 -78 463 -154 57 -39 139 -122 175 -177 l31 -49 62 0 c73 0 174 -33
237 -78 299 -208 416 -674 308 -1223 l-11 -57 -36 24 c-19 13 -46 24 -60 24
-24 0 -24 2 -18 48 30 207 35 415 12 522 -8 36 -25 90 -38 120 -24 53 -160
264 -177 274 -5 3 -3 -25 4 -62 34 -177 43 -508 19 -684 -9 -65 -21 -52 -18
19 2 54 2 55 -4 13 l-7 -45 -13 78 c-6 43 -12 87 -12 98 0 17 -40 127 -111
304 -38 94 -112 245 -121 245 -13 0 -138 -101 -138 -112 0 -5 -4 -6 -10 -3 -5
3 -10 2 -10 -3 0 -5 -6 -9 -12 -9 -23 0 -88 -45 -81 -56 3 -6 1 -7 -5 -3 -14
8 -125 -48 -115 -59 5 -4 2 -5 -5 -1 -7 4 -46 -6 -87 -23 -88 -35 -189 -64
-300 -86 -78 -16 -405 -34 -405 -22 0 15 113 218 147 263 27 37 30 52 6 33
-16 -13 -17 -12 -4 3 7 10 17 16 21 13 7 -4 42 35 84 95 9 13 9 13 -6 2 -12
-10 -18 -10 -24 -1 -4 7 -3 9 4 5 6 -3 13 -2 17 4 4 6 10 8 14 6 15 -10 106
101 107 131 1 15 2 31 3 36 2 12 19 8 24 -7 4 -9 1 -13 -6 -10 -8 3 -13 -4
-13 -16 0 -18 2 -18 21 -6 11 8 19 20 17 26 -1 6 2 9 7 6 5 -3 15 2 22 11 12
15 12 16 -3 10 -10 -4 -18 -2 -18 4 0 7 10 9 24 5 16 -4 28 0 37 11 12 15 12
16 -3 10 -10 -3 -20 -1 -24 5 -5 8 2 9 22 5 17 -3 36 -1 44 4 23 16 -140 3
-250 -20 -199 -41 -427 -131 -580 -229 -140 -89 -282 -249 -334 -377 -16 -39
-37 -88 -46 -110 -10 -22 -23 -65 -29 -95 -19 -96 -20 -97 -16 -10 10 188 57
353 154 548 85 168 144 260 250 385 l80 97 -57 -26 c-116 -51 -215 -119 -312
-214 -265 -259 -340 -534 -294 -1071 l7 -76 -38 -6 c-21 -3 -46 -14 -56 -23
-23 -21 -23 -21 -43 123 -42 300 -6 633 92 844 57 125 112 201 221 309 161
159 362 278 606 358 231 76 422 102 608 82z m-2143 -991 l55 -13 -85 -7 c-47
-4 -114 -17 -150 -28 -68 -22 -244 -115 -200 -106 14 3 45 9 70 15 66 14 235
12 311 -4 78 -17 157 -54 217 -103 42 -34 42 -34 42 -103 0 -67 -1 -68 -41
-104 -73 -66 -220 -146 -299 -162 -8 -2 -53 -12 -100 -23 -47 -12 -132 -26
-190 -32 -58 -6 -116 -13 -130 -16 -33 -6 -33 -6 -36 12 -1 8 1 13 4 11 4 -2
17 9 29 24 16 19 18 27 8 27 -8 0 -12 -4 -9 -8 2 -4 0 -10 -5 -13 -5 -4 -8 1
-7 11 2 9 10 17 20 19 30 4 64 46 60 72 -3 17 2 29 16 39 11 8 18 18 15 23 -3
5 -1 11 5 15 5 3 10 0 10 -9 0 -15 23 -16 37 -2 4 4 1 6 -7 4 -17 -3 -15 34 1
40 5 2 17 11 26 20 16 16 16 16 10 0 -9 -24 6 -22 40 5 37 30 144 102 163 111
8 3 -40 4 -107 2 -67 -2 -128 -8 -135 -12 -7 -5 -22 -9 -33 -10 -45 -2 -155
-38 -233 -75 -63 -31 -102 -58 -156 -112 -83 -82 -119 -139 -139 -217 -18 -70
-25 -48 -15 49 21 206 84 337 222 469 113 107 256 177 416 202 70 11 229 5
300 -11z m4445 -4 c84 -18 212 -79 283 -135 68 -55 166 -186 213 -285 45 -97
59 -171 59 -327 l0 -118 -64 0 -63 0 -6 -262 c-7 -336 -30 -487 -103 -681 -85
-223 -272 -367 -479 -367 -238 0 -418 161 -513 460 -59 186 -84 330 -89 515
-5 162 -4 174 21 250 68 211 99 403 100 613 l1 174 45 30 c89 62 232 123 318
138 77 13 202 11 277 -5z m-6001 -177 c3 -24 10 -104 16 -178 19 -252 95 -638
169 -865 87 -267 256 -591 443 -852 96 -134 252 -324 276 -337 14 -7 15 -6 5
5 -9 9 -13 49 -13 126 l0 113 38 -42 c20 -23 36 -45 34 -50 -1 -5 2 -7 8 -3 6
4 24 -5 40 -18 68 -57 210 -107 305 -107 133 1 246 47 355 148 32 28 60 52 62
52 3 0 4 -54 3 -119 -1 -113 -3 -121 -30 -163 -90 -138 -233 -251 -376 -297
l-37 -12 52 -47 c83 -78 79 -76 122 -52 21 11 42 20 47 20 4 0 38 20 74 45
128 85 231 204 278 322 13 32 28 58 32 58 24 0 102 -39 96 -48 -3 -5 -1 -7 5
-4 13 9 44 -2 37 -13 -3 -5 0 -12 6 -16 8 -5 9 -3 4 6 -11 18 25 5 113 -40
l73 -37 -39 -16 c-34 -14 -46 -14 -88 -3 -27 7 -73 25 -102 40 -52 26 -72 27
-72 2 0 -20 -43 -96 -95 -168 -43 -60 -58 -72 -177 -139 -72 -41 -147 -84
-167 -96 -20 -12 -55 -33 -78 -47 l-43 -25 -72 56 c-274 210 -541 477 -745
743 -423 552 -658 1215 -708 1998 l-7 102 76 0 75 0 5 -42z m4425 -231 c108
-350 116 -396 116 -677 0 -250 -10 -348 -61 -580 -111 -505 -371 -876 -694
-991 -55 -20 -85 -23 -195 -24 -110 0 -141 4 -199 23 -138 47 -240 114 -351
235 -198 213 -336 537 -404 947 -55 335 -50 662 15 888 l15 52 213 0 c299 0
524 20 726 66 209 46 484 163 640 271 82 57 85 58 97 38 6 -12 43 -123 82
-248z m-2601 -380 c121 -248 122 -251 122 -340 -1 -245 -93 -630 -187 -780
-135 -214 -330 -306 -538 -252 -290 76 -452 402 -481 968 l-7 137 74 0 c92 0
252 23 359 50 174 44 361 137 506 251 65 51 90 66 100 58 7 -5 30 -47 52 -92z
m3020 -54 c42 -26 62 -87 62 -193 0 -95 -20 -295 -40 -400 -14 -74 -60 -168
-106 -220 -34 -38 -106 -80 -136 -80 -15 0 -2 59 47 205 60 182 64 197 80 352
21 196 20 211 -10 225 -21 10 -25 18 -25 57 0 25 4 51 8 57 16 26 77 24 120
-3z m-2420 5 c7 -7 12 -32 12 -57 0 -36 -5 -49 -25 -66 l-26 -20 11 -120 c15
-183 28 -247 81 -407 56 -170 68 -228 48 -228 -29 1 -96 39 -131 76 -83 87
-119 220 -139 504 -14 186 -4 257 41 302 23 22 38 28 72 28 24 0 49 -5 56 -12z
m-1856 -231 c23 -22 25 -31 31 -153 5 -102 14 -159 42 -268 20 -76 34 -141 31
-143 -9 -9 -76 39 -102 72 -37 49 -63 125 -79 234 -22 142 -20 222 6 255 25
32 39 33 71 3z m6098 3 c18 -18 20 -33 20 -130 0 -160 -31 -294 -83 -362 -31
-39 -100 -88 -111 -78 -3 3 13 74 34 158 31 119 41 179 46 277 7 122 8 126 33
140 34 19 38 18 61 -5z m-3986 -1178 c13 -26 42 -72 65 -102 l41 -55 -2 -208
-3 -209 -145 -48 c-242 -80 -623 -253 -814 -369 -38 -22 -71 -41 -75 -41 -3 0
-36 20 -73 44 -62 40 -66 45 -50 58 25 22 323 180 464 247 134 63 320 139 466
191 l92 32 0 254 c0 140 2 254 5 254 2 0 16 -21 29 -48z m1849 -459 c6 -5 59
-26 117 -47 137 -49 357 -144 495 -213 144 -72 403 -212 409 -221 2 -4 -27
-28 -65 -53 l-69 -47 -123 71 c-138 79 -351 183 -525 256 -119 50 -353 131
-378 131 -12 0 -14 38 -14 215 l0 215 48 68 c27 37 57 82 68 100 l19 33 3
-249 c2 -184 6 -252 15 -259z m-343 -142 l0 -170 -61 -81 c-102 -135 -246
-246 -409 -315 -143 -60 -132 -57 -165 -41 -17 8 -65 29 -109 47 -43 17 -124
62 -180 99 -106 71 -176 137 -245 232 l-41 57 0 167 0 167 25 -23 c13 -12 22
-28 18 -34 -3 -6 -3 -8 2 -4 4 4 31 -12 59 -35 79 -67 162 -113 266 -148 89
-31 104 -33 242 -33 80 0 144 -4 142 -8 -13 -21 141 49 231 105 75 46 179 133
195 162 7 14 17 25 22 25 4 0 8 -76 8 -169z m-1404 -223 c36 -81 133 -215 205
-282 116 -110 261 -194 422 -246 l67 -22 0 -79 c0 -77 -1 -79 -22 -75 -55 12
-107 18 -177 22 -42 3 -80 9 -85 14 -7 7 48 5 97 -5 27 -5 10 12 -19 19 -15 4
-58 23 -96 42 -76 37 -82 39 -73 25 3 -5 1 -12 -4 -15 -5 -4 -8 2 -7 11 2 11
-18 30 -58 56 -34 22 -77 52 -97 68 -20 16 -38 27 -40 26 -2 -1 -3 0 -1 2 1 3
-24 32 -57 65 -70 72 -121 146 -161 232 -26 58 -53 135 -47 140 7 7 105 43
118 43 9 1 24 -16 35 -41z m1690 21 c56 -21 56 -21 51 -57 -7 -39 -65 -168
-97 -212 -22 -31 -26 -45 -8 -34 7 4 8 3 4 -5 -4 -6 -10 -10 -14 -7 -4 2 -34
-26 -67 -63 -107 -118 -238 -211 -403 -283 -58 -26 -70 -34 -55 -40 16 -7 16
-8 -3 -5 -11 2 -56 -2 -100 -8 -43 -7 -82 -11 -86 -8 -5 2 -8 37 -8 76 l0 72
68 23 c190 66 366 179 473 306 55 65 147 206 162 249 8 22 14 21 83 -4z"/>
<path d="M4495 7223 c3 -27 9 -214 15 -418 6 -203 13 -379 15 -390 2 -11 21
-33 41 -49 l36 -28 -6 68 c-17 188 -27 317 -37 504 -14 275 -19 317 -39 340
-26 29 -30 25 -25 -27z"/>
<path d="M5370 6588 c0 -15 -9 -33 -20 -41 -11 -8 -17 -17 -12 -22 4 -5 2 -5
-5 -1 -7 4 -43 -7 -80 -25 -187 -86 -438 -205 -523 -247 -90 -45 -95 -49 -102
-86 -12 -57 -41 -99 -88 -125 -35 -20 -52 -23 -115 -19 -64 3 -79 7 -112 34
-21 16 -50 54 -65 84 l-28 54 0 -79 c0 -89 16 -125 78 -173 40 -31 115 -62
149 -62 99 0 183 53 229 145 16 30 32 55 37 55 5 0 28 12 51 26 53 33 184 106
310 173 55 29 117 64 138 77 20 13 42 24 47 24 5 0 16 6 23 13 7 6 30 21 51
32 22 12 35 25 32 33 -3 8 0 10 6 6 29 -17 40 81 14 126 l-14 25 -1 -27z"/>
<path d="M6210 3445 c-16 -19 -16 -63 -1 -78 8 -8 58 -13 134 -15 113 -3 124
-2 150 18 31 25 35 50 9 73 -26 24 -273 25 -292 2z"/>
<path d="M6840 3440 c-26 -26 -25 -42 1 -66 18 -17 37 -19 150 -19 116 0 130
2 143 20 21 27 20 49 -2 68 -15 14 -41 17 -145 17 -114 0 -129 -2 -147 -20z"/>
<path d="M3725 3668 c-50 -27 -59 -75 -20 -113 24 -25 25 -25 228 -25 200 0
204 0 225 23 31 33 29 80 -4 106 -25 20 -39 21 -218 21 -119 0 -199 -5 -211
-12z"/>
<path d="M4703 3668 c-47 -23 -51 -102 -6 -126 15 -8 311 -17 411 -13 58 3 82
82 37 126 -24 25 -25 25 -222 24 -117 0 -207 -5 -220 -11z"/>
<path d="M2372 3453 c-17 -7 -33 -49 -26 -68 9 -22 69 -35 165 -35 72 0 91 3
113 21 32 25 33 39 3 67 -21 20 -34 22 -133 21 -60 0 -115 -3 -122 -6z"/>
</g>
</svg>
